<svg xmlns="http://www.w3.org/2000/svg" version="1.1" xmlns:xlink="http://www.w3.org/1999/xlink" width="250" height="250"><svg width="250" height="250" viewBox="0 0 250 250" fill="none" xmlns="http://www.w3.org/2000/svg">
<rect width="250" height="250" rx="125" fill="#F77E53"></rect>
<path d="M108.6 202.2C105.4 202.2 101.6 201.867 97.2 201.2C92.9333 200.533 88.8 199.133 84.8 197C80.8 194.733 77.4667 191.333 74.8 186.8C72.1333 182.133 70.8 175.867 70.8 168V88.2C70.8 81.2667 71.8667 75.4667 74 70.8C76.2667 66.1333 79.0667 62.5333 82.4 60C85.8667 57.3333 89.7333 55.4667 94 54.4C98.2667 53.2 102.4 52.6 106.4 52.6C117.067 52.6 126.333 52.8 134.2 53.2C142.067 53.4667 149 53.8 155 54.2C161 54.6 166.4 55 171.2 55.4V84.6H116.8C113.2 84.6 110.4 85.4667 108.4 87.2C106.4 88.8 105.4 91.4 105.4 95V111.4L161.4 113.4V140.6L105.4 142.4V158C105.4 160.933 105.867 163.267 106.8 165C107.733 166.6 109 167.8 110.6 168.6C112.2 169.4 113.933 169.8 115.8 169.8H171.2V198.8C165.333 199.467 158.8 200.067 151.6 200.6C144.4 201.133 137.067 201.467 129.6 201.6C122.267 201.867 115.267 202.067 108.6 202.2Z" fill="white"></path>
</svg><style>@media (prefers-color-scheme: light) { :root { filter: none; } }
@media (prefers-color-scheme: dark) { :root { filter: none; } }
</style></svg>